<!-- Generator: Adobe Illustrator 17.0.2, SVG Export Plug-In . SVG Version: 6.00 Build 0)  -->
<!DOCTYPE svg PUBLIC "-//W3C//DTD SVG 1.1//EN" "http://www.w3.org/Graphics/SVG/1.1/DTD/svg11.dtd">
<svg version="1.1" id="Layer_1" xmlns="http://www.w3.org/2000/svg" xmlns:xlink="http://www.w3.org/1999/xlink" x="0px" y="0px"
	 width="800px" height="800px" viewBox="0 0 800 800" enable-background="new 0 0 800 800" xml:space="preserve">
<g id="Body_Outline" display="none">
	<path display="inline" fill="#1E2123" d="M357.794,296.804c2.08-0.213,4.239,0.027,5.946-0.4c1.706-0.427,3.466-2.186,5.519-3.333
		c1.973-1.093,6.106-2.746,6.932-3.919c0.8-1.173,0.347-4.106,0.133-5.972c-0.24-1.946-0.507-5.572-1.04-6.879l20.503-0.16
		c-0.587,1.626-0.693,5.039-0.72,7.012c-0.027,1.493,0.16,3.706,0.373,4.613c0.373,1.653,3.546,2.213,3.546,2.213
		s3.306,0.827,5.866,1.973c2.453,1.093,4.239,2.56,6.026,2.72c1.786,0.187,4.746-0.027,9.412,2.186
		c4.666,2.186,6.426,10.425,6.799,11.998c1.68,6.852,0.24,10.078,0.48,12.451c0.267,2.506,2.106,5.386,2.613,8.639
		c0.453,2.773,1.146,7.625,1.653,9.758c0.453,2,4.613,7.145,5.946,11.731c2.373,8.105,5.279,28.049,7.652,32.795
		c1.52,3.039,8.105,9.278,10.612,12.585c0.693,0.907,1.866,4.026,2.826,5.866c0.96,1.84,2.906,5.866,3.039,6.372
		c0.16,0.507,0.427,1.76-0.64,1.733c-1.066-0.027-2-1.733-2-1.733l-4.346-7.332c0,0,0.933,2.293,1.386,3.626
		c1.093,3.333,2.586,5.999,2.826,6.746c0.133,0.453-0.053,1.386-0.987,1.52c-0.933,0.133-1.44-1.253-1.813-1.946
		c-0.32-0.667-0.987-2.053-1.92-4.079c-2.08-4.533-2.613-4.666-2.613-4.666s1.173,1.653,1.813,3.626
		c0.427,1.333,1.04,4.586,1.12,5.119c0.107,0.72,0.32,1.706-0.32,2c-0.667,0.293-1.386-0.773-1.573-1.226
		c-0.32-0.8-1.28-4.399-1.76-5.839c-0.48-1.44-1.653-3.013-1.653-3.013s0.48,1.653,0.853,2.986c0.48,1.706,1.2,4.319,1.226,4.533
		c0.08,0.56-0.107,1.146-0.853,1.013c-0.773-0.16-1.093-1.706-1.546-2.8c-0.453-1.093-0.56-1.76-2.56-4.853
		c-1.973-3.093-6.692-6.932-7.412-10.265c-0.48-2.186-0.08-4.133-1.28-7.039c-1.2-2.933-10.398-16.344-12.665-21.33
		c-2.186-4.773-3.813-11.305-4.133-13.118c-0.4-2.32,0.853-5.332-2.533-10.745c-2.106-3.386-4.426-14.104-4.426-14.104
		s-0.347,12.025-0.507,15.038c-0.293,5.439-1.36,9.705-1.626,11.251c-0.267,1.653-0.133,3.573-0.027,5.279
		c0.107,2,0.8,6.186,0.907,8.452s0.32,7.225,0.32,7.225l0.027,6.719c0,0,2.853,19.197,2.96,23.303
		c0.24,9.598-0.986,21.063-0.853,26.076c0.133,5.039,0.053,15.597-0.933,23.329c-0.453,3.546,0.453,7.839,0.64,11.145
		c0.187,3.333,1.04,17.73,0.8,24.476c-0.32,8.692-3.013,19.143-2.666,22.53c0.347,3.386,0.08,5.652,0.453,6.719
		c0.4,1.227,2.426,6.186,4.079,8.345c1.76,2.293,7.759,9.065,8.559,10.505c0.187,0.347,0.48,0.933,0.613,1.44s0.133,1.12,0.133,1.12
		l-0.027,0.853c0,0-0.187,1.093-0.48,1.226s-0.773,0.027-0.907,0.08c-0.107,0.053-0.107,0.533-0.16,0.88s-0.453,0.667-0.933,0.8
		c-0.48,0.16-1.333-0.267-1.653-0.16c-0.24,0.08-0.16,1.2-0.907,1.36c-0.986,0.187-1.786-0.187-2.053-0.133
		c-0.267,0.053-0.773,0.853-1.2,1.066c-0.427,0.213-0.8,0.373-1.76,0.32c-0.96-0.053-1.68-0.453-2.16-0.987
		c-0.507-0.533-1.413-1.546-1.92-1.946c-0.773-0.64-2.133-0.48-3.146-2.026s-1.68-5.919-2.106-8.212s-0.453-3.653-1.253-5.279
		c-0.8-1.626-1.92-3.759-2.213-5.119c-0.4-1.893,0.027-2.746-0.453-5.279c-0.507-2.693,0.027-3.733-0.107-5.226
		c-0.133-1.493-0.16-3.519-0.427-5.306c-0.293-1.786-1.946-6.612-2.613-10.105c-0.347-1.893-0.8-4.719-0.907-6.746
		c-0.053-1.173-1.52-7.092-1.68-9.278c-0.267-3.573,0.827-10.878,0.773-13.464c-0.027-2.053-2.266-6.079-3.919-12.185
		c-1.733-6.452-3.253-13.838-3.946-17.517c-0.587-2.986-2.613-9.838-3.599-16.904c-1.36-9.812-2-32.475-2-32.475h-0.533
		c0,0-0.88,33.221-1.013,37.46c-0.133,4.239,0.187,7.732,0.4,10.932c0.24,3.199,1.013,16.131,0.747,20.13
		c-0.267,3.999-1.653,8.345-1.52,10.185c0.133,1.813,4.932,14.211,5.386,18.983c0.533,5.786-0.987,10.665-0.933,12.638
		c0.08,2.373,0.88,10.025,1.013,12.851c0.107,2.853,0.827,8.399,1.6,11.598c0.773,3.199,1.733,4.479,1.973,6.746
		s0.187,4.639,0.16,5.679c-0.027,1.04-0.613,2.16-0.72,3.119c-0.107,1.066,0.293,4.773,0.373,5.679
		c0.053,0.88-0.187,2.506-0.587,3.199s-1.813,2.026-1.813,2.026s-0.933,4.053-3.013,3.919c-1.893-0.133-1.413-1.6-1.76-1.973
		c-0.293-0.347-0.8,1.04-1.573,1.013c-1.68-0.053-1.28-0.827-1.786-0.96c-0.48-0.107-1.093,0.48-1.866,0.453
		c-0.667-0.027-1.12-1.066-1.546-1.2c-0.427-0.133-1.12,0.427-1.84,0.107c-0.827-0.373-0.747-1.12-0.747-1.12
		s-1.12,0.08-1.866-0.213c-0.747-0.32-0.533-0.747-0.24-1.44c0.32-0.773,1.066-2.373,1.893-3.173c0.987-0.96,2.373-2.64,3.253-3.679
		c0.88-1.04,3.333-3.679,3.626-4.213c0.293-0.533-0.027-1.813,0-2.72c0.027-0.907,0-2.026,0-2.933
		c0-0.906-3.813-11.971-4.773-14.611c-0.96-2.613-5.146-14.051-5.812-15.811c-0.24-0.64-0.773-2.506-1.333-4.639
		c-1.013-3.706-1.68-4.613-1.973-6.959c-0.373-3.039-0.453-9.012-0.107-13.864c0.347-4.826,0.133-10.132,0-12.105
		c-0.133-1.973-0.16-3.813-0.4-6.452c-0.24-2.666-0.107-5.812-0.667-7.785c-0.56-1.973-5.679-14.451-7.225-25.089
		c-0.4-2.826-0.587-3.733-1.173-7.225c-0.587-3.519-1.786-7.945-2.133-12.745c-0.373-4.906-0.267-9.625-0.187-13.064
		c0.08-3.439,0.16-6.772,0.827-10.958c0.667-4.186,3.599-11.411,4.106-13.864c0.347-1.706,0.267-2.72,0.213-4.746
		c-0.053-2.026,0.613-6.212,0.933-8.159c0.32-1.946-0.16-9.678-0.267-11.918c-0.107-2.213-0.827-5.092-1.146-7.812
		c-0.347-2.72-1.44-12.371-1.44-12.371s0.88,7.492,0.667,13.331c-0.24,7.252-2.08,13.411-2.453,16.397
		c-0.373,2.773-0.427,10.718-0.533,12.425c-0.107,1.706-1.626,9.785-3.253,13.358c-1.626,3.573-2.986,6.159-3.679,8.052
		c-0.693,1.893-2.826,7.305-2.986,8.319s-0.027,3.146-0.027,3.759c0,1.066,0.48,2.026,1.12,3.466
		c0.773,1.733,0.72,3.066,0.667,4.533c-0.053,1.12-0.427,1.92-0.48,3.759c-0.107,3.519,0.187,8.159,0.187,8.159
		s0.053,1.306-0.853,1.28c-1.04-0.027-1.253-0.587-1.333-1.28c-0.08-0.693-0.08-2.613-0.32-3.679c-0.16-0.72-0.32-1.12-0.533-1.813
		c-0.213-0.693-1.146-2.133-1.813-2.213c-0.8-0.08-1.04,0.64-1.413,1.2c-0.373,0.587-1.44,1.52-1.493,1.973
		c-0.08,0.453,0.48,4.133,1.44,5.066c0.773,0.747,1.866,1.52,2.746,1.786c0.987,0.293,2.826,0.347,2.826,1.253
		c0,0.747-0.053,1.04-0.613,1.306c-0.587,0.267-2.08-0.08-3.519-0.24c-1.44-0.16-3.013-0.987-3.439-1.493
		c-0.507-0.587-1.333-1.68-2.053-3.093c-0.667-1.386-1.466-2.56-1.6-4.293c-0.133-1.706,0.213-5.626,0.427-8.239
		c0.213-2.613,1.866-6.719,1.866-6.719s0.373-4.693,0.587-5.866c0.16-0.933,0.587-2.853,0.907-6.532
		c0.32-3.679,1.12-13.464,1.626-17.49c0.507-4.026,1.306-9.198,1.893-11.891s1.626-4.426,2.346-6.452
		c0.667-1.946,0.133-7.172,0.133-10.265c0-3.093,0.24-5.519,0.507-7.199c0.267-1.68,0.427-2.506,0.48-3.546
		c0.027-0.827-0.693-2.8-0.96-5.013c-0.293-2.32-0.88-7.439-0.667-10.958c0.213-3.706,0.507-10.772,3.519-13.171
		C352.195,297.924,354.328,297.124,357.794,296.804z"/>
	<path display="inline" fill="#1E2123" d="M398.107,263.743l0.16-2.666c0,0,0.986-1.306,2.026-0.64
		c0.987,0.64,0.987,1.626,0.987,2.426s-0.747,1.76-0.96,2.533c-0.213,0.773-0.533,2.266-1.173,2.346
		c-0.747,0.107-1.066-0.32-1.066-0.32c-0.24-0.373,0.053-0.587,0.053-0.587L398.107,263.743z"/>
	<path display="inline" fill="#1E2123" d="M372.698,263.236l-0.16-2.773c0,0-1.04-1.36-2.08-0.667
		c-1.013,0.667-1.013,1.68-1.013,2.533c-0.027,0.853,0.773,1.813,0.987,2.613c0.213,0.8,0.56,2.346,1.2,2.426
		c0.747,0.107,1.093-0.347,1.093-0.347c0.24-0.373-0.053-0.613-0.053-0.613L372.698,263.236z"/>
</g>
<g id="Blue">
	<g id="Blue_Pelvis">
		<path fill="#5D9AD2" d="M302.816,314.321c0.133,3.119,1.52,4.853,4.986,6.106c2.72,0.986,5.439,0.133,7.839,2.506
			c2.666,2.666,7.732,21.943,12.905,31.995c4.106,7.999,28.689,18.557,28.689,18.557s-23.089-9.998-27.969-19.703
			c-5.146-10.185-9.545-29.115-12.718-32.288c-3.119-3.119-8.559-1.146-11.331-3.919c-2.426-2.426-2.506-13.784-2.506-13.784
			S302.71,311.921,302.816,314.321z"/>
		<path fill="#5D9AD2" d="M432.848,306.082c0,0,1.786,14.131-0.773,18.69c-3.199,5.652-17.544,5.866-20.397,8.719
			c-2.853,2.853-11.385,20.077-18.397,26.236c-7.385,6.479-25.036,13.544-25.036,13.544s17.17-7.999,24.209-14.264
			c5.039-4.479,14.798-23.463,18.37-26.609c3.706-3.253,16.237-3.893,19.783-7.705C434.181,320.853,432.848,306.082,432.848,306.082
			z"/>
	</g>
	<g id="Blue_Left_Lower_Arm">
		<path fill="#5D9AD2" d="M256.477,335.517c2.533,14.398,5.546,30.768,5.546,30.768s-2.666-16.531-5.146-33.968
			c-3.893-27.382,5.332-52.871,5.332-52.871S250.638,302.296,256.477,335.517z"/>
		<path fill="#5D9AD2" d="M249.145,364.419c0,0-1.146,13.278,0.347,16.984c1.36,3.306,3.013,2.88,3.013,2.88
			s-2.693,0.587-3.759-2.72C247.839,378.577,249.145,364.419,249.145,364.419z"/>
		<path fill="#5D9AD2" d="M292.045,298.617c0,0,0.32,9.332-1.44,19.917c-1.413,8.585-5.919,23.543-5.919,23.543
			s4.079-16.877,5.119-24.049C290.818,310.855,292.045,298.617,292.045,298.617z"/>
	</g>
	<g id="Blue_Abdomen">
		<path fill="#5D9AD2" d="M388.135,252.171c0,0,6.106,0.64,10.078-1.146c4.079-1.84,10.452-8.265,10.452-8.265
			s-5.732,6.826-7.679,10.798c-2.773,5.679-3.733,12.398-4.719,32.741c-1.146,23.383-2.693,18.744-6.159,42.58
			c-0.933,6.506-1.84,18.264-7.305,23.703c-7.625,7.625-19.57,10.931-19.57,10.931v-39.46c0,0-0.587,35.461,1.386,37.06
			c1.973,1.6,8.852-2.346,17.144-9.892c4.346-3.946,6.106-15.864,7.359-24.289c0.986-6.666,3.946-17.064,1.44-16.904
			c-5.013,0.373-10.638,0.693-10.638,0.693s4.693-0.933,8.985-2.293c6.879-2.16,6.079-16.611,6.426-24.743
			c0.133-2.826,1.013-8.452-1.226-8.265c-4.319,0.4-10.718,0.667-10.718,0.667s3.199-0.16,10.105-1.946
			c2.773-0.72,3.013-6.639,3.919-12.185c0.56-3.359,3.119-8.665-1.706-9.172C392.748,252.491,388.135,252.171,388.135,252.171z"/>
		<path fill="#5D9AD2" d="M340.623,252.171c0,0-5.572,0.64-9.172-1.146c-3.706-1.84-9.518-8.265-9.518-8.265
			s5.226,6.826,6.986,10.798c2.506,5.679,3.386,12.398,4.293,32.741c1.04,23.383,2.453,18.744,5.599,42.58
			c0.853,6.506,1.68,18.264,6.639,23.703c6.959,7.625,17.81,10.931,17.81,10.931v-39.46c0,0-0.107,34.954-1.386,36.794
			c-1.28,1.84-7.919-2.106-15.491-9.652c-3.946-3.946-5.572-15.864-6.719-24.289c-0.907-6.666-3.599-17.064-1.306-16.904
			c4.559,0.373,9.678,0.693,9.678,0.693s-4.266-0.933-8.185-2.293c-6.239-2.16-5.519-16.611-5.866-24.743
			c-0.107-2.826-0.933-8.452,1.12-8.265c3.946,0.4,9.758,0.667,9.758,0.667s-2.906-0.16-9.198-1.946
			c-2.533-0.72-2.746-6.639-3.573-12.185c-0.507-3.359-2.826-8.665,1.546-9.172C336.411,252.491,340.623,252.171,340.623,252.171z"
			/>
		<path fill="#5D9AD2" d="M436.074,259.183c0,0-2.826,19.837-4.186,27.675c-1.36,7.839-10.158,9.465-10.158,9.465
			s5.519-1.733,7.999-6.239C432.181,285.606,436.074,259.183,436.074,259.183z"/>
		<path fill="#5D9AD2" d="M365.099,265.422c0,0-0.267,6.772,1.093,7.972c2.48,2.16,9.385,2.48,9.385,2.48s-7.065,0.053-10.638,0
			c-3.013-0.053-10.638-0.16-10.638-0.16s8.132-1.226,9.412-2.32C364.992,272.248,365.099,265.422,365.099,265.422z"/>
		<path fill="#5D9AD2" d="M365.659,233.055c0,0,0.533,11.251,0.88,14.691c0.347,3.439,8.559,4.159,8.559,4.159l-20.37-0.427
			c0,0,9.758-0.16,9.892-4.293C364.753,243.319,365.606,233.135,365.659,233.055z"/>
		<path fill="#5D9AD2" d="M372.511,310.828h-16.531c0,0,5.866-0.453,6.905-1.306c1.013-0.853,0.853-8.559,0.853-8.559
			s0.133,7.172,1.146,8.292C365.872,310.375,372.511,310.828,372.511,310.828z"/>
		<path fill="#5D9AD2" d="M303.749,293.684c0,0,0.96-6.959,1.386-9.012c0.427-2.053,3.279-10.398,3.279-10.398
			s-2.346,8.452-2.853,10.505C305.056,286.859,303.749,293.684,303.749,293.684z"/>
		<path fill="#5D9AD2" d="M301.91,238.147c0,0,0.96,6.639,1.653,9.625c0.693,2.986,13.784,21.037,13.784,21.037
			s-12.371-17.65-13.331-21.463C303.03,243.559,301.91,238.147,301.91,238.147z"/>
		<path fill="#5D9AD2" d="M431.941,298.11c0,0-0.08-10.665-2.106-15.651c-2.026-4.959-5.892-14.744-5.892-14.744
			s4.666,9.732,6.452,14.531C432.181,287.019,431.941,298.11,431.941,298.11z"/>
	</g>
	<g id="Blue_Left_Hand">
		<path fill="#5D9AD2" d="M262.556,387.349c0,0,3.199,2.32,3.599,8.985c0.133,2.32-1.573,7.919-1.573,7.919s0.986-5.786,0.933-8.345
			C265.409,390.175,262.556,387.349,262.556,387.349z"/>
		<path fill="#5D9AD2" d="M262.343,435.287c0,0-1.68-4.853-4.319-6.666c-2.293-1.573-5.066-2.026-5.066-2.026
			s2.906,0.107,5.146,1.52C260.637,429.742,262.343,435.287,262.343,435.287z"/>
		<path fill="#5D9AD2" d="M244.853,451.658c0,0-5.199-8.745-5.572-12.505c-0.293-3.039-0.187-6.506-0.08-9.012
			c0.133-3.253,2.4-8.879,2.4-8.879s-1.893,6.026-2.08,8.532c-0.187,2.56-0.24,6.399,0.08,9.465
			C239.947,442.326,244.853,451.658,244.853,451.658z"/>
		<path fill="#5D9AD2" d="M259.357,460.723c0,0,4.373,0.587,5.839,0.587c1.466,0.027,2.426-1.2,2.426-1.2s-0.587,0.747-2.4,0.907
			C263.409,461.176,259.357,460.723,259.357,460.723z"/>
		<path fill="#5D9AD2" d="M263.063,458.83c0,0,2.853,0.373,3.813,0.4c0.96,0.027,1.573-0.8,1.573-0.8s-0.4,0.48-1.573,0.587
			C265.729,459.123,263.063,458.83,263.063,458.83z"/>
		<path fill="#5D9AD2" d="M266.129,451.551c0,0,1.253,0.453,2.426,0.16c1.84-0.453,1.386-5.066,1.386-5.066s0,3.173-0.907,4.106
			C268.129,451.711,266.129,451.551,266.129,451.551z"/>
		<path fill="#5D9AD2" d="M252.131,447.445c0,0-1.36-4.639-1.813-6.666c-0.48-2.133-0.427-6.106-0.427-6.106
			s-0.32,4.426,0.027,5.946C250.292,442.14,252.131,447.445,252.131,447.445z"/>
		<path fill="#5D9AD2" d="M268.449,405.026c0,0,2.96,5.839,2.32,10.718c-0.64,4.879-1.173,8.879-1.173,8.879s0.507-4.346,0.72-8.799
			C270.582,411.398,268.449,405.026,268.449,405.026z"/>
	</g>
	<g id="Blue_Left_Upper_Leg">
		<path fill="#5D9AD2" d="M290.498,421.236c0,0,5.572,35.221,8.399,48.952c2.826,13.731,5.972,25.462,5.972,25.462
			s-2.133-12.611-4.879-27.515C297.244,453.231,290.498,421.236,290.498,421.236z"/>
		<path fill="#5D9AD2" d="M329.425,534.578c0,0-5.252,7.705-5.199,18.157c0.053,10.452,5.892,25.836,5.892,25.836
			s-4.346-17.357-4.346-25.036C325.772,545.856,329.425,534.578,329.425,534.578z"/>
		<path fill="#5D9AD2" d="M344.756,551.135c0,0-3.199,3.653-3.039,8.505c0.16,4.852,1.04,14.558,1.04,14.558s-0.16-9.758,0-14.398
			C342.943,555.188,344.756,551.135,344.756,551.135z"/>
		<path fill="#5D9AD2" d="M308.149,355.861c-1.04-4.559-8.052,17.384-8.052,17.384s6.986-28.555,9.145-20.93
			c0.907,3.199,6.159,21.383,11.998,41.486c8.105,27.942,9.918,59.91,9.918,59.91s-2.933-32.635-11.491-59.67
			C313.854,375.671,308.549,357.727,308.149,355.861z"/>
		<path fill="#5D9AD2" d="M360.167,441.9c0,0-1.12,28.555-0.88,37.274c0.187,6.426-15.811,25.222-15.811,25.222
			s13.251-16.397,14.291-25.729C358.807,469.335,360.167,441.9,360.167,441.9z"/>
	</g>
	<g id="Blue_Right_Lower_Leg">
		<path fill="#5D9AD2" d="M412.451,605.579c0,0,2.4,25.356,2.24,34.954s-5.066,23.383-5.066,23.383s3.333-13.784,3.866-23.729
			C413.998,630.268,412.451,605.579,412.451,605.579z"/>
		<path fill="#5D9AD2" d="M441.94,627.949c0,0,0.187,11.011-0.987,18.93c-0.933,6.266-8.958,21.596-8.958,21.596
			s5.999-11.785,7.972-20.477C441.913,639.36,441.94,627.949,441.94,627.949z"/>
		<path fill="#5D9AD2" d="M406.186,668.769c0,0,1.573,6.212,2.96,10.958s9.198,14.744,9.198,14.744s-6.079-8.852-8.292-14.371
			C407.812,674.474,406.186,668.769,406.186,668.769z"/>
		<path fill="#5D9AD2" d="M435.301,697.217c0,0,0.533,10.958,0.507,11.811c-0.053,0.827-1.2,2.426-1.2,2.426s0.8-1.306,0.907-2.56
			C435.701,707.029,435.301,697.217,435.301,697.217z"/>
	</g>
	<g id="Blue_Left_Lower_Leg">
		<path fill="#5D9AD2" d="M360.06,566.332c0,0-1.6,6.532-1.626,9.598c0,2.373-7.572,12.345-7.972,20.61
			c-0.56,11.331-0.027,19.143-0.027,19.143s-1.12-11.758-1.226-20.343c-0.053-5.839,2.8-8.639,5.839-14.958
			C358.087,574.064,360.06,566.332,360.06,566.332z"/>
		<path fill="#5D9AD2" d="M319.507,604.726c0,0-0.32,24.903,0.987,33.088s8.399,19.49,8.399,19.49s-5.866-10.158-7.305-19.837
			C320.147,627.789,319.507,604.726,319.507,604.726z"/>
		<path fill="#5D9AD2" d="M371.978,624.456c0,0,2.133,15.997-2.453,33.728c-2.026,7.812-8.425,10.558-8.425,10.558
			s3.573,0.053,7.545-11.545C372.618,645.626,371.978,624.456,371.978,624.456z"/>
		<path fill="#5D9AD2" d="M340.41,697.217c0,0,4.533,11.598,7.279,20.343s6.239,18.824,6.239,18.824s-3.039-10.212-5.972-18.984
			C345.049,708.575,340.41,697.217,340.41,697.217z"/>
		<path fill="#5D9AD2" d="M372.511,691.805c0,0,0.64,14.744,4.106,29.808c1.013,4.346,3.893,11.971,3.893,11.971
			s-4.399-9.732-5.679-16.451C373.524,710.495,372.511,691.805,372.511,691.805z"/>
	</g>
	<g id="Blue_Left_Foot">
		<path fill="#5D9AD2" d="M382.056,753.874c0,0-0.187,3.653-1.733,7.332c-1.546,3.679-1.6,6.719-1.6,6.719s0-4.506,1.253-7.092
			C381.256,758.274,382.056,753.874,382.056,753.874z"/>
		<path fill="#5D9AD2" d="M355.874,748.942c0,0,0,5.839,0.187,8.265c0.053,0.72,5.199,2.506,7.519,3.999
			c1.786,1.146,7.359,5.013,7.359,5.013c0.053,0.027-3.679-3.626-7.465-5.732c-3.653-2.026-6.532-2.906-6.772-4.079
			C356.247,754.114,355.874,748.942,355.874,748.942z"/>
		<path fill="#5D9AD2" d="M357.207,759.767c0,0-4.133,4.826-5.146,6.612c-0.987,1.786-3.546,8.425-3.546,8.425
			s2.986-6.266,3.946-7.972C353.394,765.179,357.207,759.767,357.207,759.767z"/>
		<path fill="#5D9AD2" d="M359.153,763.926c0,0-3.359,4.319-4.239,6.399c-0.88,2.08-1.146,4.906-1.146,4.906s0.907-2.8,1.706-4.746
			C356.301,768.539,359.153,763.926,359.153,763.926z"/>
		<path fill="#5D9AD2" d="M361.793,768.539c0,0-1.493,2.533-2.133,4.133c-0.613,1.6-0.907,3.893-0.907,3.893
			s0.667-2.346,1.226-3.786C360.567,771.311,361.793,768.539,361.793,768.539z"/>
		<path fill="#5D9AD2" d="M381.096,778.91c0,0-0.48,4.479-1.44,5.812c-1.36,1.92-4.693,5.226-4.693,5.226s3.306-3.866,4.399-5.626
			C380.457,782.59,381.096,778.91,381.096,778.91z"/>
		<path fill="#5D9AD2" d="M367.952,800c0,0-3.226,0.267-4.293-1.84c-0.507-1.013-0.773-1.973-0.773-2.853
			c-0.027-2.266,3.413-8.825,3.413-8.825s-2.8,7.305-2.853,8.425c-0.053,1.093,0.16,2.16,0.72,3.12
			C365.232,799.787,367.952,800,367.952,800z"/>
		<path fill="#5D9AD2" d="M357.927,797.467c0,0-1.76-0.08-2.666-1.013c-0.72-0.747-0.88-1.067-0.8-1.626
			c0.267-1.76,3.786-7.679,3.786-7.679s-3.386,6.532-3.413,7.652c0,0.453,0.107,0.667,0.667,1.413S357.927,797.467,357.927,797.467z
			"/>
		<path fill="#5D9AD2" d="M350.782,796.027c0,0-1.626,0.507-2.933-0.293c-1.306-0.773-1.84-1.413-2.186-2.533
			s2.853-5.972,2.853-5.972s-2.56,4.693-2.453,5.706c0.107,1.013,1.04,2.026,1.893,2.613
			C349.155,796.374,350.782,796.027,350.782,796.027z"/>
		<path fill="#5D9AD2" d="M342.143,793.654c0,0-1.493,0.267-2.8-1.146c-0.48-0.533-0.827-1.227-0.533-2.026
			c0.293-0.773,1.733-3.439,1.733-3.439s-1.093,2.906-1.36,3.439c-0.267,0.533-0.16,0.987,0.187,1.546
			C340.463,793.788,342.143,793.654,342.143,793.654z"/>
		<path fill="#5D9AD2" d="M336.224,790.482c0,0-1.52-0.08-2.64-0.693c-1.12-0.613-0.933-1.253-0.933-1.573
			c0-0.32,1.68-4.213,1.68-4.213s-1.306,3.679-1.333,4.213c-0.027,0.533,0.187,0.72,0.8,1.2
			C334.358,789.895,336.224,790.482,336.224,790.482z"/>
		<path fill="#5D9AD2" d="M370.485,798.773c0,0,1.306-1.146,2.32-3.039c0.667-1.253,1.146-2.48,1.146-2.48s-0.72,1.173-1.253,2.24
			C372.138,796.561,370.485,798.773,370.485,798.773z"/>
	</g>
	<g id="Blue_Right_Foot">
		<path fill="#5D9AD2" d="M414.851,728.892c0,0,1.2,1.946,3.146,6.479c1.946,4.533,3.813,10.638,3.813,10.638
			s-1.973-7.812-3.493-10.905C416.797,731.905,414.851,728.892,414.851,728.892z"/>
		<path fill="#5D9AD2" d="M432.555,713.561c0,0-11.705,9.225-12.318,11.091c-0.613,1.893,10.238,29.808,10.238,29.808
			s-9.438-27.195-8.692-29.648C422.53,722.36,432.555,713.561,432.555,713.561z"/>
		<path fill="#5D9AD2" d="M424.716,725.719l12.425,33.594c0,0-4.693-14.798-6.452-19.33
			C428.928,735.424,424.716,725.719,424.716,725.719z"/>
		<path fill="#5D9AD2" d="M428.102,722.066c0,0,4.186,7.865,5.466,11.092c1.28,3.226,4.773,12.851,4.773,12.851
			s-3.039-9.598-4.293-12.984C432.795,729.612,428.102,722.066,428.102,722.066z"/>
		<path fill="#5D9AD2" d="M430.928,719.613c0,0,3.946,5.572,5.386,8.719c1.44,3.146,2.88,7.732,2.88,7.732s-1.066-5.226-2.453-7.999
			C435.327,725.292,430.928,719.613,430.928,719.613z"/>
		<path fill="#5D9AD2" d="M449.138,780.883c0,0,2.533-1.413,3.146-2.773s0.347-2.48-0.453-3.786c-0.8-1.306-6.746-6.906-6.746-6.906
			s5.732,5.946,6.292,7.492c0.533,1.546,0.293,2.613-0.08,3.279C450.898,778.857,449.138,780.883,449.138,780.883z"/>
		<path fill="#5D9AD2" d="M457.03,778.51c0,0,2.533-0.347,2.72-3.439c0.133-1.973-0.667-2.72-1.173-3.413s-4.693-4.239-4.693-4.239
			s3.279,3.573,4.026,4.693c0.773,1.2,0.96,1.973,0.853,3.253C458.63,776.964,457.03,778.51,457.03,778.51z"/>
		<path fill="#5D9AD2" d="M463.776,775.551c0,0,2.746-0.267,2.96-3.359c0.133-1.973-0.853-2.773-1.413-3.466
			c-0.533-0.667-3.973-3.546-3.973-3.546s2.48,2.933,3.306,3.999c0.933,1.173,1.333,2,1.226,3.279
			C465.722,774.031,463.776,775.551,463.776,775.551z"/>
		<path fill="#5D9AD2" d="M468.202,771.071c0,0,2.96-0.267,2.96-3.359c0-1.386-0.16-2.133-0.48-2.96
			c-0.533-1.413-1.866-2.773-1.866-2.773s1.12,1.28,1.44,3.12c0.16,0.96,0.293,1.573,0.213,2.853
			C470.362,769.525,468.202,771.071,468.202,771.071z"/>
		<path fill="#5D9AD2" d="M445.886,781.683c0,0-3.413,0.32-5.732-1.6c-2.32-1.946-3.226-3.226-3.226-3.226s0.96,1.066,3.573,2.96
			C443.166,781.71,445.886,781.683,445.886,781.683z"/>
		<path fill="#5D9AD2" d="M424.503,765.392c0,0,1.226,3.493,2.8,5.066c1.573,1.573,4.533,2.506,4.533,2.506
			s-2.693-1.253-4.266-2.853C426.049,768.512,424.503,765.392,424.503,765.392z"/>
		<path fill="#5D9AD2" d="M447.779,733.264c0,0,4.106,4.986,5.866,7.065c1.76,2.08,4.773,10.612,4.773,10.612
			s-2.853-7.759-5.119-10.398S447.779,733.264,447.779,733.264z"/>
	</g>
	<g id="Blue_Left_Upper_Arm">
		<path fill="#5D9AD2" d="M262.85,194.341c0,0,1.893,20.877,3.866,26.049c1.973,5.172,5.626,8.905,5.626,8.905
			s-2.853-3.253-5.012-9.332C265.196,213.858,262.85,194.341,262.85,194.341z"/>
		<path fill="#5D9AD2" d="M286.686,138.617c11.598-1.226,13.011-0.853,13.011-0.853s-1.2-0.133-13.358,2.106
			c-12.771,2.346-18.61,11.331-18.61,11.331S273.328,140.03,286.686,138.617z"/>
		<path fill="#5D9AD2" d="M298.817,245.666c0,0-3.226,17.944-6.932,26.556c-3.706,8.612-9.518,16.504-9.518,16.504
			s7.092-9.012,10.372-17.277C296.044,263.209,298.817,245.666,298.817,245.666z"/>
		<path fill="#5D9AD2" d="M284.179,162.186c0,0-7.892,8.905-9.758,14.824c-1.893,5.919-2.826,27.089-2.826,27.089
			s1.706-18.69,3.866-25.969C277.567,170.852,284.179,162.186,284.179,162.186z"/>
	</g>
	<g id="Blue_Right_Lower_Arm">
		<path fill="#5D9AD2" d="M459.003,295.551c0,0,2.746,9.012,9.785,22.77c7.039,13.758,27.889,47.965,27.889,47.965l-11.971-19.49
			c0,0-12.931-20.93-17.01-28.235S459.003,295.551,459.003,295.551z"/>
		<path fill="#5D9AD2" d="M491.691,264.089c0,0,5.119,9.092,7.199,16.291s3.759,15.944,3.759,15.944s-2.186-8.105-4.853-16.691
			C495.157,271.048,491.691,264.089,491.691,264.089z"/>
		<path fill="#5D9AD2" d="M504.969,322.213c0,0,4.399,11.945,6.026,16.85c1.626,4.906,4.453,17.597,4.453,17.597
			s-3.653-12.078-5.252-17.224C508.622,334.291,504.969,322.213,504.969,322.213z"/>
	</g>
	<g id="Blue_Right_Upper_Leg">
		<path fill="#5D9AD2" d="M364.539,406.386c0,0,2.826,32.635,4.213,44.259c1.386,11.598,6.826,42.366,6.826,42.366
			s-6.266-24.663-7.812-39.913C366.379,439.26,364.539,406.386,364.539,406.386z"/>
		<path fill="#5D9AD2" d="M390.188,554.948c0,0,5.092,14.584,7.599,22.05c2.506,7.465,13.251,10.771,13.251,10.771
			s-9.812-4.319-12.425-11.278C396.001,569.532,390.188,554.948,390.188,554.948z"/>
		<path fill="#5D9AD2" d="M432.395,567.239c0,0,3.546,10.238-1.253,15.437c-5.839,6.292-13.598,5.359-13.598,5.359
			s8.905,1.706,14.051-4.346S432.395,567.239,432.395,567.239z"/>
		<path fill="#5D9AD2" d="M405.092,416.517c0,0,2.4,18.717-0.667,32.075c-3.066,13.358-11.758,50.045-10.532,63.243
			c1.253,13.598,13.544,51.191,13.544,51.191s-10.505-32.261-11.705-51.191c-1.2-18.904,7.412-50.125,10.372-62.55
			C409.092,436.941,405.092,416.517,405.092,416.517z"/>
		<path fill="#5D9AD2" d="M439.113,384.309c0,0-2.48-18.37-3.786-26.876c-1.333-8.505-13.624-9.465-13.624-9.465
			s9.652,1.786,12.078,10.078C436.234,366.339,439.113,384.309,439.113,384.309z"/>
		<path fill="#5D9AD2" d="M440.687,489.785c0,0,0,23.036-0.827,34.741c-0.693,9.758-1.946,21.81-1.946,21.81
			s0.853-12.238,1.173-22.53C439.38,513.541,440.687,489.785,440.687,489.785z"/>
		<path fill="#5D9AD2" d="M441.326,401.346c0,0,1.28,5.546,1.413,14.158s-8.639,40.34-8.639,40.34s7.892-32.688,7.652-40.5
			C441.513,407.532,441.326,401.346,441.326,401.346z"/>
	</g>
	<g id="Blue_Right_Hand">
		<path fill="#5D9AD2" d="M512.381,373.511c0,0-2.666,4.106-2.24,7.359c0.427,3.253,2.826,7.039,5.492,9.092
			s10.372,4.453,12.585,6.159c2.24,1.706,6.586,6.426,9.758,7.625c3.173,1.2,4.959,1.12,6.506,0c1.546-1.12-1.36-5.999-1.36-5.999
			s1.306,1.893,1.92,3.066c0.933,1.706,0.933,2.746,0.187,3.546c-0.747,0.8-3.466,1.466-7.385-0.16
			c-2.959-1.226-6.319-4.986-10.158-7.145c-3.919-2.186-9.225-3.306-13.118-6.826c-3.893-3.519-5.306-5.199-5.439-9.012
			C509.075,379.057,512.381,373.511,512.381,373.511z"/>
		<path fill="#5D9AD2" d="M501.13,381.83c0,0,0.187,4.266,1.28,8.292s8.559,12.611,8.559,12.611s-5.919-7.545-7.625-11.838
			C501.69,386.816,501.13,381.83,501.13,381.83z"/>
		<path fill="#5D9AD2" d="M529.312,377.27c1.786,1.973,4.559,4.959,4.559,4.959s-3.226-2.8-5.093-4.906
			c-1.866-2.106-3.786-4.906-3.786-4.906S527.525,375.297,529.312,377.27z"/>
		<path fill="#5D9AD2" d="M559.733,424.996c0,0,1.28,2.4,1.013,4.746c-0.187,1.733-2.293,1.36-2.293,1.36s1.2,0.053,1.76-1.44
			C560.826,428.195,559.733,424.996,559.733,424.996z"/>
		<path fill="#5D9AD2" d="M526.486,424.729c0,0,2.373,6.986,3.386,8.505c0.16,0.24,1.253,1.973,2.746,1.28
			c1.493-0.693,1.093-2.213,1.04-2.56c-0.053-0.32-0.613-2.346-0.613-2.346s0.24,1.413,0.267,2.32s0.187,1.733-0.853,2.186
			c-1.04,0.48-1.733-0.427-2.373-1.333S526.486,424.729,526.486,424.729z"/>
		<path fill="#5D9AD2" d="M547.255,420.597l3.759,8.852c0,0,1.6,3.173,2.346,5.226c0.747,2.053-1.6,3.439-1.6,3.439
			s1.573-0.773,0.96-3.333c-0.613-2.533-1.093-3.386-2.026-5.546C549.788,427.076,547.255,420.597,547.255,420.597z"/>
		<path fill="#5D9AD2" d="M541.176,429.075c0,0,1.546,6.532,0.987,8.159c-0.56,1.626-1.84,1.386-1.84,1.386s0.613,0.08,1.333-1.653
			C542.376,435.234,541.176,429.075,541.176,429.075z"/>
		<path fill="#5D9AD2" d="M557.387,419.957l-4.479-9.038c0,0,0.88,2.56,2.053,4.853C556.134,418.09,557.387,419.957,557.387,419.957
			z"/>
	</g>
	<g id="Blue_Right_Upper_Arm">
		<path fill="#5D9AD2" d="M470.628,168.185c0,0,3.946,12.691,1.706,27.062c-2.24,14.398-9.065,16.371-9.065,16.371
			s5.946-2.24,8.159-17.064C473.641,179.73,470.628,168.185,470.628,168.185z"/>
		<path fill="#5D9AD2" d="M431.835,132.858c0,0,14.104,1.333,21.543,5.412c8.665,4.746,12.798,15.891,12.825,15.917
			c0,0-6.532-11.038-13.358-14.744C446.019,135.737,431.835,132.858,431.835,132.858z"/>
		<path fill="#5D9AD2" d="M442.58,233.268c0,0,4.239,13.918,7.119,19.17c2.88,5.252,10.665,12.958,10.665,12.958
			s-6.532-8.185-9.518-12.931C447.859,247.719,442.58,233.268,442.58,233.268z"/>
		<path fill="#5D9AD2" d="M428.662,155.574c0,0,9.012,19.89,15.411,26.502c6.399,6.639,20.557,10.505,20.557,10.505
			s-11.758-3.199-20.797-13.251C434.794,169.278,428.662,155.574,428.662,155.574z"/>
		<path fill="#5D9AD2" d="M475.907,213.244c0,0,1.973,4.533,2.56,8.025c0.587,3.493,1.573,9.545,1.573,9.545
			s-1.386-5.252-2.32-9.545C476.814,216.951,475.907,213.244,475.907,213.244z"/>
	</g>
	<g id="Blue_Chest">
		<path fill="#5D9AD2" d="M387.709,214.391c0.107-0.027,18.45-0.427,29.782-2.586c11.705-2.24,13.144-9.678,17.41-7.439
			c3.279,1.733,2.346,18.744,2.346,18.744s0.533-9.918-0.213-16.451c-0.96-8.425-0.293-19.303-0.293-19.303
			s-0.213,18.317-19.063,22.77C402.053,213.778,387.709,214.391,387.709,214.391z"/>
		<path fill="#5D9AD2" d="M297.67,198.447c-0.027,5.199,2.693,24.636,2.693,24.636s-3.386-25.062-0.4-26.502
			c2.773-1.333,10.372,11.198,17.544,15.144c7.759,4.266,32.101,2.666,32.101,2.666s-24.183,1.36-31.861-4.426
			c-11.705-8.799-23.489-26.182-23.489-26.182S297.724,188.609,297.67,198.447z"/>
		<path fill="#5D9AD2" d="M411.598,137.044c0,0-11.198-0.4-16.957,0.693s-15.811,4.906-15.811,4.906s10.052-5.332,15.357-6.106
			C399.493,135.764,411.598,137.044,411.598,137.044z"/>
		<path fill="#5D9AD2" d="M321.906,136.831c0,0,10.398-0.4,15.624,0.907c5.252,1.306,14.264,5.199,14.264,5.199
			s-8.905-5.146-13.758-6.159C333.184,135.764,321.906,136.831,321.906,136.831z"/>
		<path fill="#5D9AD2" d="M399.067,120.673c0,0,3.919,1.146,9.012,2.773c5.092,1.6,10.985,4.959,10.985,4.959
			s-6.852-2.613-11.118-4.213S399.067,120.673,399.067,120.673z"/>
		<path fill="#5D9AD2" d="M331.158,124.006c0,0-3.439,1.626-6.879,3.333c-4.959,2.48-8.719,5.439-8.719,5.439
			c0.053-0.027,6.799-3.626,9.145-4.826C327.079,126.779,331.158,124.006,331.158,124.006z"/>
	</g>
	<g id="Blue_Head">
		<path fill="#5D9AD2" d="M363.766,101.156c3.573,0,9.812-3.253,9.812-3.253s-6.426,4.133-9.812,4.133
			c-3.386,0-9.945-4.133-9.945-4.133S360.193,101.156,363.766,101.156z"/>
		<path fill="#5D9AD2" d="M342.223,89.692l-3.626-3.466l1.68,13.091l0.027,0.133l0.053,0.347c0,0,0.187,1.413,0.373,2.746
			c0.24,1.893,2.453,17.464,3.066,22.69c0.667,5.972,17.597,14.238,17.597,14.238l0,0c0,0-18.104-7.279-18.744-13.571
			c-0.587-5.839-2.213-21.943-2.32-23.329c-0.107-1.386-2.16-16.771-2.16-16.771s-4.399-4.826-4.879-6.426
			c-0.613-2.106-1.84-7.359-2.133-10.665c-0.373-3.973-0.373-10.825-0.347-10.745l0.88,3.839c0,0,0,3.919,0.16,6.692
			c0.16,2.746,0.933,7.492,2.133,10.585C335.237,82.12,342.223,89.692,342.223,89.692z"/>
		<path fill="#5D9AD2" d="M385.576,89.532l4.399-3.973l-0.933,8.505l-0.507,6.559h0.16c0.293-5.866,1.813-15.571,1.813-15.571
			s3.813-3.946,4.426-5.306c1.253-2.773,1.253-7.812,1.546-11.118l-0.933,1.946c-0.16,2.746-0.08,5.572-1.306,8.639
			C393.014,82.306,385.576,89.532,385.576,89.532z"/>
		<path fill="#5D9AD2" d="M389.762,124.833c-0.986-11.518-1.093-24.209-1.093-24.209h-0.16c0,0,0.16,10.292,0.16,24.076
			c0,8.212-18.904,14.744-18.904,14.744S390.482,133.151,389.762,124.833z"/>
		<path fill="#5D9AD2" d="M359.393,103.023c0,0,3.759,7.279,4.533,11.571c0.773,4.293,0.347,12.425,0.88,12.425
			c0.667,0-0.24-8.399,0.507-12.451c0.747-4.053,3.946-11.838,3.946-11.838l-4.666,10.558L359.393,103.023z"/>
		<path fill="#5D9AD2" d="M399.333,44.713c0,0,1.893-1.013,3.519,1.44c1.84,2.773,0.773,6.479,0.773,6.479s0.72-3.466-1.146-6.159
			C400.827,44.099,399.333,44.713,399.333,44.713z"/>
		<path fill="#5D9AD2" d="M396.987,60.043c0,0,0.853,0.88,1.813,0.72c1.573-0.267,2.346-3.306,2.346-3.306s-0.933,2.506-2.48,2.853
			C397.44,60.577,396.987,60.043,396.987,60.043z"/>
		<path fill="#5D9AD2" d="M402.186,47.086c0,0,0.56,0.667,0.853,1.626c0.293,0.96,0.16,2.186,0.16,2.186s-0.053-1.12-0.293-2.026
			C402.64,47.965,402.186,47.086,402.186,47.086z"/>
		<path fill="#5D9AD2" d="M328.092,43.459c0,0-1.893-1.013-3.519,1.44c-1.84,2.773-0.773,6.479-0.773,6.479s-0.72-3.466,1.146-6.159
			C326.599,42.846,328.092,43.459,328.092,43.459z"/>
		<path fill="#5D9AD2" d="M329.958,58.497c0,0-0.747,0.773-1.626,0.64c-1.386-0.213-2.08-2.933-2.08-2.933s0.827,2.24,2.213,2.533
			C329.558,58.977,329.958,58.497,329.958,58.497z"/>
		<path fill="#5D9AD2" d="M325.239,45.832c0,0-0.56,0.667-0.853,1.626c-0.293,0.96-0.16,2.186-0.16,2.186s0.053-1.12,0.293-2.026
			C324.786,46.712,325.239,45.832,325.239,45.832z"/>
		<path fill="#5D9AD2" d="M396.854,47.619l-3.306-7.012c0,0,1.386-18.29-2.266-21.943c-3.653-3.653-21.25,3.493-27.355,3.493
			c-6.106,0-23.916-7.119-27.569-3.493c-3.653,3.653-3.173,22.076-3.173,22.076l-2.533,6.826c0,0-0.48-17.73-0.4-19.89
			C330.332,25.569,330.412,0,363.606,0S397.52,26.076,397.6,27.675C397.654,29.302,396.854,47.619,396.854,47.619"/>
		<path fill="#5D9AD2" d="M373.551,52.045c0,0,3.226-2,5.626-2c1.84,0,3.386,0.587,4.639,1.28c0.986,0.56,2.533,1.306,2.533,1.306
			s-1.893-1.173-2.853-1.866c0,0-0.693-2.16-4.239-1.52c-1.28,0.24-2.213,0.693-4.159,1.84
			C374.191,51.618,373.551,52.045,373.551,52.045z"/>
		<path fill="#5D9AD2" d="M379.31,55.857c-3.679,0-7.039-2.693-7.039-2.693s2.8,3.093,7.039,3.093c3.839,0,7.012-3.599,7.039-3.599
			C386.349,52.658,382.75,55.857,379.31,55.857z"/>
		<path fill="#5D9AD2" d="M366.352,50.658c0,0,1.093-3.253,5.252-7.199c4.239-4.026,11.705-3.466,14.264-2.026
			c3.306,1.866,4.213,4.613,4.213,4.613s-1.253-3.466-6.479-4.426c-3.893-0.72-8.825,0.373-11.545,2.506
			C368.272,47.112,366.352,50.658,366.352,50.658z"/>
		<path fill="#5D9AD2" d="M353.954,52.098c0,0-3.226-2-5.626-2c-1.84,0-3.386,0.587-4.639,1.28c-0.987,0.56-2.533,1.306-2.533,1.306
			s1.893-1.173,2.853-1.866c0,0,0.693-2.16,4.239-1.52c1.28,0.24,2.213,0.693,4.159,1.84
			C353.288,51.671,353.954,52.098,353.954,52.098z"/>
		<path fill="#5D9AD2" d="M348.195,55.884c3.679,0,7.039-2.693,7.039-2.693s-2.8,3.093-7.039,3.093
			c-3.839,0-7.012-3.599-7.039-3.599C341.13,52.711,344.729,55.884,348.195,55.884z"/>
		<path fill="#5D9AD2" d="M360.38,50.658c0,0-1.093-3.253-5.252-7.199c-4.239-4.026-11.705-3.466-14.264-2.026
			c-3.306,1.866-4.213,4.613-4.213,4.613s1.253-3.466,6.479-4.426c3.893-0.72,8.825,0.373,11.545,2.506
			C358.46,47.112,360.38,50.658,360.38,50.658z"/>
		<path fill="#5D9AD2" d="M363.659,73.321"/>
		<path fill="#5D9AD2" d="M367.046,72.468c0.48-0.187,0.986-0.427,0.986-0.773c0-0.293-0.16-0.587-0.827-0.587
			c-1.2,0-1.786,2.266-3.546,2.266c-1.84,0-2.4-2.346-3.573-2.346c-0.693,0-0.933,0.4-0.933,0.693c0,0.347,0.32,0.613,0.933,0.747
			l0,0c0,0-2.373-0.16-2.373-2.24c0-2.133,1.36-3.173,1.893-3.706c2.826-2.826,1.76-16.317,2.773-15.037
			c0.453,0.56,0.507,3.333,0.907,3.333c0.373,0,0.853-1.44,1.28-1.013c0.853,0.853,0.027,9.865,2.906,12.718
			c0.56,0.56,1.893,1.546,1.893,3.679C369.338,72.228,367.046,72.468,367.046,72.468L367.046,72.468z"/>
		<path fill="#5D9AD2" d="M363.606,80.093c2,0,2.24-1.146,3.839-1.146c2.133,0,9.892,3.626,9.892,3.626s-0.48,0.347-1.12,0
			c-6.719-3.626-8.212-3.119-8.825-3.119c-0.773,0-1.573,1.866-3.786,1.866c-2.106,0-2.986-1.92-3.973-1.92
			c-0.48,0-2.293-0.427-8.879,3.199c-0.56,0.32-1.066-0.027-1.066-0.027s7.519-3.626,9.892-3.626
			C361.1,78.947,361.766,80.093,363.606,80.093z"/>
		<path fill="#5D9AD2" d="M377.364,82.546c0,0-6.826,4.773-13.758,4.773c-6.906,0-13.918-4.773-13.918-4.773h1.173
			c0,0,5.786,1.253,8.985,0.4c1.013-0.267,1.44,0.72,3.973,0.72c2.533,0,3.119-0.96,4.373-0.72c2.986,0.533,8.052-0.4,8.052-0.4
			H377.364z"/>
	</g>
</g>
<g id="Right_Lower_Leg">
	<path fill="#454E55" d="M356.141,735.397c1.733-4.746,5.092-7.732,9.678-8.612c3.893-0.747,7.439,0.053,10.558,2.346
		c1.733,1.28,3.119,2.906,4.133,4.479c-1.066-3.279-2.586-6.532-3.893-11.971c-2-8.239-3.839-22.503-4.106-29.808
		c-0.293-7.305-2.373-26.982-2.56-33.088c-0.16-5.093,3.786-17.65,2.4-32.501c-1.146-12.265-13.491-44.099-13.838-48.792
		c-0.027-0.32-0.027-0.693,0-1.066c-2.32,5.519-6.372,12.798-13.064,18.85c-2.746,2.48-5.626,3.733-8.559,3.733
		c-0.747,0-1.52-0.08-2.293-0.267c-6.826-1.546-11.891-9.652-14.238-14.211c0,4.746-0.107,9.892-0.48,14.878
		c-0.907,12.451-0.667,27.809,0.293,35.647c0.747,6.079,2.48,8.425,5.066,17.917c1.466,5.439,2.826,10.238,3.466,11.918
		c1.706,4.559,12.505,33.914,14.957,40.687c2.026,5.546,9.039,25.809,11.438,34.101
		C355.287,738.357,355.607,736.891,356.141,735.397z"/>
</g>
<g id="Right_Foot">
	<path fill="#454E55" d="M381.71,738.997c0.64,5.892,0.48,11.945,0.427,14.611c-0.053,2.693-1.573,5.572-1.84,8.052
		c-0.293,2.746,0.773,12.291,0.933,14.584c0.16,2.293-0.453,6.452-1.493,8.239c-1.04,1.76-4.693,5.199-4.693,5.199
		s-2.4,10.452-7.785,10.052c-4.853-0.373-3.653-4.106-4.506-5.092c-0.747-0.853-2.053,2.666-4.053,2.613
		c-4.293-0.107-3.306-2.16-4.559-2.453c-1.253-0.293-2.826,1.253-4.773,1.173c-1.733-0.08-2.88-2.773-3.973-3.119
		c-1.093-0.347-2.906,1.12-4.719,0.293c-2.133-0.987-1.893-2.88-1.893-2.88s-2.853,0.213-4.799-0.587
		c-1.946-0.8-1.333-1.946-0.64-3.706c0.8-1.973,2.746-6.079,4.853-8.132c2.506-2.426,6.079-6.772,8.372-9.438
		c2.293-2.666,8.532-9.438,9.305-10.798c0.747-1.36-0.08-4.693,0-7.039s0-5.199,0-7.545c0-0.613-0.293-13.224,10.105-15.224
		C376.457,725.826,381.416,736.464,381.71,738.997z"/>
</g>
<g id="Right_Upper_Leg">
	<path fill="#454E55" d="M334.944,597.207c3.173,0.72,6.372-0.32,9.465-3.119c12.425-11.225,15.517-26.849,15.544-27.009l0,0
		c0.96-4.799,2.08-10.425,2.453-15.784c0.693-10.292-1.28-43.486-1.893-51.751c-0.613-8.265-1.36-17.197-1.066-28.102
		c0.293-10.025,2.24-83.106,2.56-94.758c-2.933-1.066-28.769-10.772-34.554-21.036c-3.146-5.546-5.732-13.224-8.052-20.023
		c-1.786-5.252-3.626-10.665-4.719-11.651c-0.693-0.613-1.626-1.466-7.065-2.16c-1.893-0.24-5.119-0.347-6.212-0.373
		c-2.053,7.092-8.105,22.37-9.705,32.448c-1.706,10.798-1.866,19.33-2.106,28.182c-0.24,8.852-0.48,20.956,0.453,33.594
		c0.933,12.371,3.999,23.756,5.492,32.795c1.493,9.039,1.946,11.358,2.986,18.584c3.973,27.329,17.117,59.43,18.584,64.523
		s1.12,13.224,1.706,20.05c0.587,6.826,0.72,11.571,1.04,16.637c0.16,2.533,0.373,7.226,0.453,12.825
		C321.08,582.73,326.919,595.394,334.944,597.207z"/>
	<path fill="#454E55" d="M334.918,597.367c0.667,0.16,1.333,0.213,1.973,0.213c2.586,0,5.119-1.147,7.625-3.386
		c9.518-8.585,13.544-19.73,14.931-24.583c0.16-0.827,0.32-1.68,0.507-2.56l0,0c-0.027,0.16-3.119,15.784-15.544,27.009
		c-3.093,2.799-6.266,3.839-9.465,3.119c-8.025-1.813-13.864-14.451-14.584-16.131c0,0.08,0,0.16,0,0.24
		C321.08,582.996,326.812,595.527,334.918,597.367z"/>
</g>
<g id="Left_Lower_Leg">
	<path fill="#454E55" d="M440.233,578.784c-1.813,4.746-6.479,9.092-16.824,10.638c-1.52,0.24-3.653,0.4-5.866,0.4
		c-2.48,0-5.066-0.213-6.986-0.747c-2.613-0.747-5.439-2.32-7.065-3.439l-0.187-0.133c-1.173-0.8-3.546-2.4-5.306-5.039
		c-0.32,7.865-2.586,24.156-1.973,32.528c0.4,5.599,4.159,20.823,4.293,23.836c0.267,5.252,1.44,12.478,2.346,17.357
		c1.653,8.985,5.946,21.356,6.692,25.996c0.72,4.586,0.8,9.732,1.093,13.598c0.24,3.12-0.56,5.439-0.213,9.892
		c0.213-0.747,0.507-1.546,0.907-2.373c1.386-2.799,4.346-6.186,10.612-6.612c6.132-0.4,9.838,1.813,11.865,3.733
		c0.8,0.747,1.413,1.52,1.866,2.213l-0.427-7.785c-0.907-8.692,6.052-35.594,6.852-57.937
		C442.42,620.563,441.007,592.835,440.233,578.784z"/>
</g>
<g id="Left_Foot">
	<path fill="#454E55" d="M435.621,703.189c0.053,3.146,0.107,5.466,0.587,6.905c1.066,3.12,6.239,15.917,10.505,21.49
		c4.533,5.892,19.943,23.329,22.023,27.009c0.48,0.88,1.2,2.4,1.573,3.733c0.373,1.333,0.347,2.906,0.347,2.906l-0.053,2.213
		c0,0-0.507,2.773-1.253,3.12c-0.747,0.347-2,0.08-2.293,0.187s-0.267,1.333-0.427,2.266c-0.16,0.906-1.173,1.68-2.426,2.08
		c-1.253,0.4-3.439-0.72-4.213-0.427c-0.587,0.213-0.427,3.093-2.346,3.466c-2.533,0.507-4.559-0.48-5.252-0.32
		c-0.693,0.16-2,2.24-3.093,2.746s-2.053,0.96-4.506,0.8c-2.453-0.16-4.319-1.173-5.572-2.533c-1.28-1.36-3.653-3.946-4.932-5.013
		c-2-1.653-5.519-1.253-8.079-5.172c-2.56-3.919-4.319-15.224-5.412-21.116c-1.066-5.892-1.173-9.412-3.199-13.598
		c-2.026-4.186-4.959-9.625-5.706-13.144c-1.04-4.852,0.08-7.065-1.146-13.598c0,0,0-10.772,11.091-11.491
		C432.928,695.031,435.621,703.189,435.621,703.189z"/>
</g>
<g id="Left_Upper_Leg">
	<path fill="#454E55" d="M438.234,543.269c2.24-19.917,2.773-47.032,2.426-59.99c-0.347-12.851,2.88-42.313,2.213-67.002
		c-0.267-10.532-7.599-59.937-7.599-59.937l-0.053-17.25c0,0-0.4-8.932-0.693-15.251c-0.4,0.427-0.907,0.987-1.333,1.653
		c-2.506,4.026-8.958,5.546-14.131,6.746c-2.56,0.587-5.759,1.333-6.346,2.08c-2.026,2.56-4.053,5.919-6.186,9.465
		c-3.439,5.759-7.359,12.291-12.371,16.931c-7.119,6.586-25.916,13.971-30.742,15.864c0.293,9.278,1.92,59.11,5.092,81.96
		c2.533,18.184,7.759,35.754,9.252,43.486c1.813,9.465,5.679,28.422,10.158,45.006c4.239,15.651,8.132,24.796,9.732,29.755
		c1.413,4.373,5.279,6.826,6.559,7.705c1.253,0.88,3.999,2.48,6.666,3.253c3.466,0.987,9.332,0.773,12.211,0.347
		c3.413-0.507,17.517-2.56,16.691-16.211c-0.4-6.692-0.827-8.425-1.066-11.758C438.234,553.081,437.46,550.228,438.234,543.269z"/>
</g>
<g id="Right_Lower_Arm">
	<path fill="#454E55" d="M283.246,295.444c-2.8,1.946-5.732,2.933-8.719,2.933c-1.013,0-2.053-0.107-3.093-0.347
		c-3.066-0.693-5.492-2.56-7.172-5.546c-1.946-3.466-2.613-8.079-2.506-12.025c-1.36,3.226-2.8,6.612-3.759,11.012
		c-1.546,6.932-3.599,20.237-4.879,30.582c-1.28,10.372-3.386,35.541-4.186,44.979c-0.8,9.438-1.946,14.398-2.346,16.797
		c-0.213,1.36-0.48,3.813-0.773,6.906c0.533-1.146,1.173-1.973,2.16-3.013c1.706-1.84,4.799-3.866,9.572-3.493
		c5.066,0.4,7.385,3.493,8.479,6.666c0-1.493,0.027-2.426,0.213-3.466c0.427-2.64,5.972-16.557,7.705-21.436
		c1.76-4.879,5.226-11.518,9.438-20.743c4.186-9.225,8.132-29.995,8.399-34.368c0.213-3.599,0.347-18.104,0.933-27.089
		C290.845,287.525,287.619,292.378,283.246,295.444z"/>
</g>
<g id="Right_Hand">
	<path fill="#454E55" d="M257.464,385.269c-7.945-0.64-11.678,6.026-12.025,10.238c-0.133,1.76-0.347,3.413-0.347,3.413
		s-4.239,10.505-4.799,17.25c-0.56,6.746-1.413,16.824-1.12,21.196c0.32,4.453,2.373,7.492,4.106,11.065
		c1.786,3.679,3.973,6.479,5.252,7.972c1.12,1.333,5.172,3.413,8.852,3.839c3.706,0.427,7.545,1.306,9.065,0.64
		c1.466-0.667,1.6-1.44,1.6-3.333c0-2.346-4.719-2.48-7.252-3.226c-2.293-0.667-5.092-2.666-7.092-4.559
		c-2.48-2.373-3.919-11.891-3.733-13.038c0.187-1.147,2.88-3.573,3.866-5.066c0.986-1.493,1.626-3.333,3.679-3.119
		c1.733,0.187,4.106,3.919,4.666,5.706c0.56,1.786,0.96,2.853,1.386,4.693c0.64,2.72,0.64,7.652,0.853,9.438
		s0.747,3.173,3.439,3.253c2.373,0.08,2.24-3.253,2.24-3.253s-0.773-11.918-0.48-21.01c0.16-4.773,1.12-6.826,1.226-9.678
		c0.16-3.786,0.24-7.199-1.733-11.678c-1.653-3.706-2.906-6.159-2.906-8.905C266.182,395.534,265.862,385.936,257.464,385.269z"/>
</g>
<g id="Right_Upper_Arm">
	<path fill="#454E55" d="M296.764,199.647c-0.213-3.119-0.48-5.466-0.72-7.359c-0.24-1.946-0.4-3.493-0.4-4.959
		c0-4.719,2.426-9.332,4.986-14.184c2.88-5.466,5.839-11.091,5.839-17.517c0-10.318,0.08-16.611,0.107-18.557
		c-4.133,0.72-9.038,0.267-13.838,0.747c-8.852,0.88-14.398,2.933-20.983,8.132c-7.785,6.159-8.532,24.343-9.092,33.888
		c-0.533,9.065,0.933,22.21,1.706,28.155c0.747,5.679,2.56,10.718,2.48,12.851c-0.107,2.613-0.507,4.826-1.2,9.092
		c-0.693,4.293-1.28,10.532-1.28,18.504c0,7.972,1.36,21.41-0.347,26.396c-1.706,5.039-1.706,19.757,7.732,21.863
		c12.931,2.88,21.063-15.144,21.41-17.757c1.04-7.652,5.706-23.489,6.346-42.153c0.133-3.946,0.08-8.185-0.08-12.291
		C298.764,219.004,297.377,208.659,296.764,199.647z"/>
</g>
<g id="Left_Lower_Arm">
	<path fill="#454E55" d="M503.183,355.967c6.212-2.853,10.852-0.053,13.518,3.173c-5.786-16.477-12.611-61.563-18.21-80.813
		c-2.853-9.732-10.638-20.45-13.918-26.769c0.107,5.359-0.693,11.385-3.226,14.051c-4.293,4.506-8.692,6.799-13.118,6.799
		c-0.027,0-0.08,0-0.107,0c-5.439-0.053-8.932-3.573-9.572-4.266c-2.24-2.453-6.932-9.998-8.772-13.011
		c7.759,13.171,4.773,20.637,5.759,26.422c0.8,4.639,5.039,21.436,10.638,33.701c5.332,11.731,25.649,41.7,31.381,52.418
		C496.944,364.046,497.664,358.5,503.183,355.967z"/>
</g>
<g id="Left_Hand">
	<path fill="#454E55" d="M498.704,370.072c3.066,7.519,2.106,12.451,3.306,18.104c1.84,8.612,13.944,18.477,19.037,26.422
		c5.092,7.945,5.412,9.678,6.559,12.478s1.946,6.772,3.946,7.199c1.946,0.4,2.4-1.147,2.213-2.586
		c-0.08-0.533-1.973-7.279-3.173-11.651c-0.933-3.413-2.16-7.652-2.16-7.652s2.959,3.999,4.213,7.732
		c1.253,3.706,3.706,12.958,4.533,15.011c0.48,1.173,2.32,3.893,4.026,3.146c1.706-0.747,1.12-3.279,0.853-5.146
		c-0.187-1.36-1.76-9.758-2.853-13.145c-1.626-5.092-4.639-9.358-4.639-9.358s1.386,0.32,6.746,11.971
		c2.4,5.252,4.079,8.825,4.932,10.532c0.907,1.76,2.24,5.279,4.639,4.986c2.4-0.293,2.88-2.693,2.533-3.866
		c-0.587-1.92-4.479-8.772-7.252-17.33c-1.12-3.466-3.546-9.358-3.546-9.358l11.171,18.824c0,0,2.4,4.399,5.119,4.479
		c2.72,0.08,2-3.146,1.6-4.453c-0.4-1.306-5.386-11.651-7.839-16.371s-5.466-12.745-7.252-15.091
		c-6.452-8.505-23.436-24.503-27.302-32.341c-0.64-1.306-5.466-9.838-14.584-5.626C496.704,360.153,497.797,367.832,498.704,370.072
		z"/>
</g>
<g id="Left_Upper_Arm">
	<path fill="#454E55" d="M482.466,244.839c-1.226-5.492-2.4-14.664-3.546-21.756c-1.36-8.372-6.052-15.757-6.746-22.236
		c-0.667-6.079,3.093-14.398-1.253-31.995c-0.987-4.026-5.492-25.196-17.49-30.848c-11.971-5.652-24.263-5.332-24.316-5.332
		l1.36,0.053c0,0.107-0.48,10.425-0.48,22.903c0,6.506,2.213,12.185,4.373,17.677c1.893,4.826,3.679,9.412,3.679,14.051
		c0,1.573-0.08,2.986-0.133,4.319c-0.107,2.293-0.213,4.666,0,7.999c0,0.16,0.8,14.984,0.987,17.81
		c0.187,2.88,5.946,27.169,11.198,35.647c0,0,6.639,11.091,9.358,14.051c1.6,1.76,9.918,8.932,20.823-2.56
		C483.613,261.183,483.639,250.065,482.466,244.839z"/>
</g>
<g id="Pelvis">
	<path fill="#454E55" d="M364.273,312.188c-1.546,0-39.033,0.853-62.39,7.865c0,0,3.519,0.08,5.919,0.4
		c5.439,0.72,6.799,1.6,7.812,2.506c2.853,2.56,7.145,21.596,13.038,31.995c5.839,10.318,33.408,20.13,33.408,20.13h1.36
		c0,0,22.183-8.292,29.835-15.384c7.892-7.279,12.958-19.41,18.397-26.236c2.213-2.773,16.717-2.8,20.397-8.719
		c0.986-1.6,2.4-2.72,2.4-2.72C426.929,319.76,399.173,312.188,364.273,312.188z"/>
</g>
<g id="Abdomen">
	<path fill="#454E55" d="M436.314,256.251c0.24-4.773,0.667-18.344,0.96-28.049c-4.693,9.972-19.997,15.917-28.582,15.917
		c-4.293,0-10.105-1.866-16.851-3.999c-8.345-2.666-17.784-5.679-26.182-5.679c-8.639,0-18.824,3.146-27.782,5.919
		c-6.586,2.053-12.291,3.813-15.971,3.813c-6.826,0-16.344-4.933-20.85-13.358c0.16,1.413,0.32,2.613,0.427,3.519
		c0.853,7.039,2.693,14.398,2.96,20.103c0.293,5.706,1.52,25.649,0.693,30.608c-0.827,4.959-2.56,15.757-2.4,20.957
		c0.16,5.199-0.373,12.318-0.373,12.318s19.357-7.519,61.883-7.519s70.148,9.678,70.148,9.678s-2-16.584-2.32-21.73
		c-0.267-4.373-0.64-9.278,0.053-13.571C432.795,281.206,435.594,270.275,436.314,256.251z"/>
</g>
<g id="Chest">
	<path fill="#454E55" d="M436.607,199.753c-0.347-5.386,0.133-8.239,0.133-12.425c0-9.465-8.052-19.063-8.052-31.701
		c0-12.638,0.48-22.956,0.48-22.956c-5.332-0.8-9.172-4.186-15.491-7.039c-6.639-2.96-15.091-5.092-15.091-5.092
		s-5.386-0.96-7.919-3.599c0.133,2.426,0.32,5.066,0.48,7.785c0.373,5.599-6.666,10.985-20.903,15.997
		c-0.08,0.027-2.533,0.907-4.666,0.907c-2.133,0-4.559-0.88-4.666-0.907c-0.187-0.053-18.717-7.599-19.623-14.691
		c-0.427-3.279-0.693-6.292-0.88-8.559c-0.24,0.56-0.48,0.88-0.48,0.88c-2.106,3.066-12.718,7.279-17.81,10.105
		c-5.306,2.933-10.185,7.545-14.184,8.532c0,0-0.08,5.972-0.08,18.61s-10.798,22.263-10.798,31.701c0,2.746,0.693,5.919,1.12,12.238
		c0.693,10.292,1.306,18.477,1.893,23.543c1.413,11.945,13.598,19.703,21.863,19.703c8.185,0,28.422-9.732,43.753-9.732
		s33.728,9.678,43.033,9.678c9.892,0,27.622-7.705,28.582-19.65C437.727,217.75,437.247,209.965,436.607,199.753z"/>
</g>
<g id="Head">
	<path fill="#454E55" d="M402.026,44.286c-2.426-1.6-4.773,1.12-5.146,1.573c0.24-8.639,0.507-17.784,0.507-17.784
		s0.587-27.622-33.941-27.622c-33.461,0-33.008,27.622-33.008,27.622s0.107,8.265,0.187,16.451v-0.08c0,0-2.64-3.493-5.359-1.68
		c-2.64,1.733-2.586,4.293-2.64,6.479c-0.027,2.186,1.946,4.693,2.533,6.719c0.56,2.026,1.44,6.052,3.093,6.266
		c1.28,0.187,2.08-0.267,2.506-0.56c0.027,1.146,0.107,2.453,0.213,3.866c0.053,1.146,0.107,2.24,0.213,3.199
		c0.187,2,0.693,4.693,1.2,6.986c0.187,0.907,0.4,1.76,0.613,2.506c0.107,0.453,0.213,0.853,0.32,1.146c0,0,0.373,0.8,0.507,1.066
		c0.507,0.933,1.92,2.72,3.946,4.879l0,0c1.36,3.333,1.973,12.745,2.56,17.73l1.2,10.585c0.107,1.386,0.4,6.426,1.173,12.265
		c0.747,5.732,16.664,12.825,18.744,13.571c0,0,2.293,0.827,4.186,0.827c1.893,0,4.213-0.827,4.213-0.827
		c3.866-1.36,20.477-7.199,19.997-14.611c-0.747-11.545-1.226-21.41-1.226-21.41v-0.4c0.08-4.879,0.32-13.251,1.68-17.57
		c2.24-2.16,3.733-4.079,4.346-5.039c1.76-2.8,2-12.318,2.053-17.97c0.32,0.293,1.146,0.853,2.56,0.667
		c1.6-0.213,2.453-4.079,2.986-6.052c0.533-1.973,2.48-4.399,2.453-6.506C404.533,48.445,404.586,45.939,402.026,44.286z"/>
</g>
</svg>
